<svg xmlns="http://www.w3.org/2000/svg" width="385.933" height="98.7" baseProfile="tiny" version="1.2" viewBox="-405.333 -14 1102.667 282"><g fill="none" stroke="#000" stroke-width="4" transform="translate(0,160)"><path d="M 50,1 l 100,0"/><circle cx="55" cy="8" r="8"/><circle cx="70" cy="8" r="8"/><circle cx="130" cy="8" r="8"/><circle cx="145" cy="8" r="8"/></g><circle cx="100" cy="100" r="60" fill="#80E0FF" fill-opacity="1" stroke="#000" stroke-width="4"/><g><g><path fill="#000" stroke="#000" stroke-width="4" d="M100,100 l0,-75 -5,3 5,-15 5,15 -5,-3" transform="translate(0,160) rotate(42.1875,100,100)"/></g></g><path fill="#000" stroke="#000" stroke-width="4" d="M 100,160l0,100"/><text x="100" y="30" fill="#000" stroke="none" stroke-width="4" font-family="Arial" font-size="40" text-anchor="middle">200</text><text x="20" y="40" fill="#000" stroke="none" stroke-width="4" font-family="Arial" font-size="40" text-anchor="end">30140000ZSEP97</text><text x="20" y="80" fill="#000" stroke="none" stroke-width="4" font-family="Arial" font-size="40" text-anchor="end">0900000.0E570306.0N</text><text x="20" y="120" fill="#000" stroke="none" stroke-width="4" font-family="Arial" font-size="40" text-anchor="end">MACHINE GUN</text><text x="180" y="80" fill="#000" stroke="none" stroke-width="4" font-family="Arial" font-size="40" text-anchor="start">FOR REINFORCEMENTS</text><text x="180" y="120" fill="#000" stroke="none" stroke-width="4" font-family="Arial" font-size="40" text-anchor="start">ADDED SUPPORT FOR JJ</text><path fill="none" stroke="#000" stroke-width="4" d="m 100,60 0,80 M 85,75 100,60 115,75"/><path fill="none" stroke="#000" stroke-width="4" d="m 85,110 30,0 m -30,-20 30,0 m -30,10 30,0"/></svg>